<?xml version="1.0" encoding="utf-8"?>
<!-- Generator: Adobe Illustrator 16.0.0, SVG Export Plug-In . SVG Version: 6.00 Build 0)  -->
<!DOCTYPE svg PUBLIC "-//W3C//DTD SVG 1.1//EN" "http://www.w3.org/Graphics/SVG/1.1/DTD/svg11.dtd">
<svg version="1.1" id="Layer_1" xmlns="http://www.w3.org/2000/svg" xmlns:xlink="http://www.w3.org/1999/xlink" x="0px" y="0px"
	 width="500px" height="500px" viewBox="0 0 500 500" enable-background="new 0 0 500 500" xml:space="preserve">
<rect width="500" height="500"/>
<g>
	<defs>
		<rect id="SVGID_1_" width="500" height="500"/>
	</defs>
	<clipPath id="SVGID_2_">
		<use xlink:href="#SVGID_1_"  overflow="visible"/>
	</clipPath>
	<path clip-path="url(#SVGID_2_)" fill="#FFFFFF" d="M92.231,393.574c0.057,1.021,0.084,1.767,0.084,2.23
		c0,4.483-1.429,8.303-4.29,11.458c-2.872,3.212-6.638,5.048-11.292,5.513l-13.351,0.166v28.599h-7.846v-63.737l20.673,0.167
		c4.54,0.521,8.36,2.16,11.458,4.921C90.712,385.695,92.231,389.258,92.231,393.574 M77.933,385.562
		c-1.319-0.461-2.721-0.813-4.207-1.052H63.383v21.892h12.827c2.481-0.741,4.437-2.18,5.866-4.311
		c1.429-2.06,2.144-4.36,2.144-6.897c0-2.116-0.515-4.036-1.546-5.763C81.645,387.707,80.063,386.415,77.933,385.562"/>
	<polygon clip-path="url(#SVGID_2_)" fill="#FFFFFF" points="174.834,441.541 140.199,441.541 140.199,377.803 174.834,377.803 
		174.834,384.7 148.044,384.7 148.044,403.563 174.834,403.563 174.834,410.104 147.874,410.104 147.874,434.644 174.834,434.644 	
		"/>
	<polygon clip-path="url(#SVGID_2_)" fill="#FFFFFF" points="266.477,384.51 248.142,384.51 248.142,441.541 240.211,441.541 
		240.211,384.51 221.875,384.51 221.875,377.803 266.477,377.803 	"/>
	<polygon clip-path="url(#SVGID_2_)" fill="#FFFFFF" points="347.101,441.541 312.466,441.541 312.466,377.803 347.101,377.803 
		347.101,384.7 320.312,384.7 320.312,403.563 347.101,403.563 347.101,410.104 320.141,410.104 320.141,434.644 347.101,434.644 	
		"/>
	<path clip-path="url(#SVGID_2_)" fill="#FFFFFF" d="M441.772,441.541h-10.347l-23.929-32.636v32.636h-8.013v-63.738l23.595,0.167
		c4.54,0,8.307,1.782,11.291,5.342c2.804,3.338,4.207,7.268,4.207,11.799c0,2.41-0.4,4.653-1.199,6.728
		c-0.854,2.063-2.236,3.952-4.143,5.68c-2.117,1.722-4.438,2.958-6.961,3.698h-8.454L441.772,441.541z M424.277,385.371
		c-0.744-0.28-1.516-0.531-2.313-0.755c-0.868-0.183-1.646-0.273-2.334-0.273h-12.133v21.364h14.193
		c2.761,0,4.921-0.975,6.477-2.922c1.485-1.893,2.23-4.22,2.23-6.98c0-2.301-0.521-4.397-1.556-6.29
		C427.816,387.621,426.294,386.242,424.277,385.371"/>
</g>
<g>
	<defs>
		<polygon id="SVGID_3_" points="65.293,457.38 61.475,469.461 57.556,457.547 55.536,457.547 61.27,472.948 61.794,472.948 
			65.492,461.155 69.25,472.948 69.79,472.948 75.264,457.547 73.345,457.547 69.592,469.461 65.734,457.38 		"/>
	</defs>
	<clipPath id="SVGID_4_">
		<use xlink:href="#SVGID_3_"  overflow="visible"/>
	</clipPath>
	
		<linearGradient id="SVGID_5_" gradientUnits="userSpaceOnUse" x1="0" y1="500" x2="1" y2="500" gradientTransform="matrix(0 16.1463 16.1463 0 -8007.7725 457.4453)">
		<stop  offset="0" style="stop-color:#FE023B"/>
		<stop  offset="0.0379" style="stop-color:#FE023B"/>
		<stop  offset="1" style="stop-color:#C51093"/>
	</linearGradient>
	<rect x="55.536" y="457.38" clip-path="url(#SVGID_4_)" fill="url(#SVGID_5_)" width="19.728" height="15.568"/>
</g>
<g>
	<defs>
		<polygon id="SVGID_6_" points="92.344,457.547 92.344,472.484 100.462,472.484 100.462,470.868 94.143,470.868 94.143,465.118 
			100.462,465.118 100.462,463.584 94.181,463.584 94.181,459.163 100.462,459.163 100.462,457.547 		"/>
	</defs>
	<clipPath id="SVGID_7_">
		<use xlink:href="#SVGID_6_"  overflow="visible"/>
	</clipPath>
	
		<linearGradient id="SVGID_8_" gradientUnits="userSpaceOnUse" x1="0" y1="500" x2="1" y2="500" gradientTransform="matrix(0 16.1463 16.1463 0 -7976.7568 457.4453)">
		<stop  offset="0" style="stop-color:#FE023B"/>
		<stop  offset="0.0379" style="stop-color:#FE023B"/>
		<stop  offset="1" style="stop-color:#C51093"/>
	</linearGradient>
	<rect x="92.344" y="457.547" clip-path="url(#SVGID_7_)" fill="url(#SVGID_8_)" width="8.118" height="14.938"/>
</g>
<g>
	<defs>
		<path id="SVGID_9_" d="M125.113,465.581l2.886,0.039c0.281,0,0.573,0.044,0.871,0.144c0.293,0.104,0.564,0.242,0.8,0.402
			c0.353,0.282,0.618,0.608,0.79,0.971c0.165,0.36,0.242,0.756,0.242,1.188c0,0.689-0.209,1.286-0.623,1.799
			c-0.42,0.508-0.994,0.811-1.716,0.91l-3.25,0.039V465.581z M125.113,459.075h2.179c0.674,0,1.275,0.171,1.799,0.508
			c0.507,0.353,0.838,0.844,0.988,1.478c0,0.051,0.005,0.135,0.016,0.238c0.017,0.11,0.028,0.204,0.028,0.281
			c0,0.674-0.199,1.242-0.59,1.7c-0.387,0.453-0.933,0.733-1.634,0.845h-2.786V459.075z M123.396,472.484h5.353
			c0.403-0.065,0.8-0.176,1.192-0.325c0.386-0.133,0.745-0.298,1.07-0.502c0.52-0.403,0.916-0.895,1.186-1.474
			c0.255-0.58,0.382-1.202,0.382-1.877c0-0.904-0.238-1.692-0.723-2.383c-0.524-0.74-1.236-1.199-2.141-1.374
			c0.783-0.227,1.368-0.685,1.754-1.369c0.326-0.568,0.486-1.147,0.486-1.742c0-1.007-0.38-1.899-1.148-2.684
			c-0.767-0.778-1.689-1.17-2.765-1.17l-4.646-0.038V472.484z"/>
	</defs>
	<clipPath id="SVGID_10_">
		<use xlink:href="#SVGID_9_"  overflow="visible"/>
	</clipPath>
	
		<linearGradient id="SVGID_11_" gradientUnits="userSpaceOnUse" x1="0" y1="500" x2="1" y2="500" gradientTransform="matrix(0 16.1463 16.1463 0 -7945.1787 457.4453)">
		<stop  offset="0" style="stop-color:#FE023B"/>
		<stop  offset="0.0379" style="stop-color:#FE023B"/>
		<stop  offset="1" style="stop-color:#C51093"/>
	</linearGradient>
	<rect x="123.396" y="457.547" clip-path="url(#SVGID_10_)" fill="url(#SVGID_11_)" width="9.183" height="14.938"/>
</g>
<g>
	<defs>
		<path id="SVGID_12_" d="M186.106,459.202h4.482c1.159,0.254,2.141,0.833,2.947,1.732c0.794,0.905,1.247,1.942,1.357,3.112
			c0.039,0.282,0.055,0.569,0.055,0.867c0,1.55-0.43,2.902-1.29,4.056c-0.939,1.264-2.175,1.898-3.692,1.898h-3.859V459.202z
			 M184.352,457.547v14.938h5.656c0.508,0,1.027-0.071,1.551-0.221c0.524-0.148,1.048-0.353,1.573-0.606
			c1.253-0.607,2.201-1.513,2.847-2.727c0.591-1.104,0.889-2.36,0.889-3.774c0-1.909-0.53-3.581-1.595-5.012
			c-1.143-1.544-2.666-2.41-4.564-2.598H184.352z"/>
	</defs>
	<clipPath id="SVGID_13_">
		<use xlink:href="#SVGID_12_"  overflow="visible"/>
	</clipPath>
	
		<linearGradient id="SVGID_14_" gradientUnits="userSpaceOnUse" x1="0" y1="500" x2="1" y2="500" gradientTransform="matrix(0 16.1463 16.1463 0 -7882.5537 457.4453)">
		<stop  offset="0" style="stop-color:#FE023B"/>
		<stop  offset="0.0379" style="stop-color:#FE023B"/>
		<stop  offset="1" style="stop-color:#C51093"/>
	</linearGradient>
	<rect x="184.352" y="457.547" clip-path="url(#SVGID_13_)" fill="url(#SVGID_14_)" width="12.516" height="14.938"/>
</g>
<g>
	<defs>
		<polygon id="SVGID_15_" points="216.712,457.547 216.712,472.484 224.829,472.484 224.829,470.868 218.511,470.868 
			218.511,465.118 224.829,465.118 224.829,463.584 218.55,463.584 218.55,459.163 224.829,459.163 224.829,457.547 		"/>
	</defs>
	<clipPath id="SVGID_16_">
		<use xlink:href="#SVGID_15_"  overflow="visible"/>
	</clipPath>
	
		<linearGradient id="SVGID_17_" gradientUnits="userSpaceOnUse" x1="0" y1="500" x2="1" y2="500" gradientTransform="matrix(0 16.1463 16.1463 0 -7852.3975 457.4453)">
		<stop  offset="0" style="stop-color:#FE023B"/>
		<stop  offset="0.0379" style="stop-color:#FE023B"/>
		<stop  offset="1" style="stop-color:#C51093"/>
	</linearGradient>
	<rect x="216.712" y="457.547" clip-path="url(#SVGID_16_)" fill="url(#SVGID_17_)" width="8.117" height="14.938"/>
</g>
<g>
	<defs>
		<polygon id="SVGID_18_" points="256.301,457.547 251.881,469.798 247.422,457.547 245.363,457.547 251.544,472.948 
			252.085,472.948 258.304,457.547 		"/>
	</defs>
	<clipPath id="SVGID_19_">
		<use xlink:href="#SVGID_18_"  overflow="visible"/>
	</clipPath>
	
		<linearGradient id="SVGID_20_" gradientUnits="userSpaceOnUse" x1="0" y1="500" x2="1" y2="500" gradientTransform="matrix(0 16.1463 16.1463 0 -7821.335 457.4453)">
		<stop  offset="0" style="stop-color:#FE023B"/>
		<stop  offset="0.0379" style="stop-color:#FE023B"/>
		<stop  offset="1" style="stop-color:#C51093"/>
	</linearGradient>
	<rect x="245.363" y="457.547" clip-path="url(#SVGID_19_)" fill="url(#SVGID_20_)" width="12.941" height="15.401"/>
</g>
<g>
	<defs>
		<polygon id="SVGID_21_" points="278.893,457.547 278.893,472.484 287.011,472.484 287.011,470.868 280.691,470.868 
			280.691,465.118 287.011,465.118 287.011,463.584 280.731,463.584 280.731,459.163 287.011,459.163 287.011,457.547 		"/>
	</defs>
	<clipPath id="SVGID_22_">
		<use xlink:href="#SVGID_21_"  overflow="visible"/>
	</clipPath>
	
		<linearGradient id="SVGID_23_" gradientUnits="userSpaceOnUse" x1="0" y1="500" x2="1" y2="500" gradientTransform="matrix(0 16.1463 16.1463 0 -7790.21 457.4453)">
		<stop  offset="0" style="stop-color:#FE023B"/>
		<stop  offset="0.0379" style="stop-color:#FE023B"/>
		<stop  offset="1" style="stop-color:#C51093"/>
	</linearGradient>
	<rect x="278.893" y="457.547" clip-path="url(#SVGID_22_)" fill="url(#SVGID_23_)" width="8.118" height="14.938"/>
</g>
<g>
	<defs>
		<polygon id="SVGID_24_" points="310.226,457.547 310.226,472.484 317.598,472.484 317.598,470.868 312.086,470.868 
			312.086,457.547 		"/>
	</defs>
	<clipPath id="SVGID_25_">
		<use xlink:href="#SVGID_24_"  overflow="visible"/>
	</clipPath>
	
		<linearGradient id="SVGID_26_" gradientUnits="userSpaceOnUse" x1="0" y1="500" x2="1" y2="500" gradientTransform="matrix(0 16.1463 16.1463 0 -7759.2412 457.4453)">
		<stop  offset="0" style="stop-color:#FE023B"/>
		<stop  offset="0.0379" style="stop-color:#FE023B"/>
		<stop  offset="1" style="stop-color:#C51093"/>
	</linearGradient>
	<rect x="310.226" y="457.547" clip-path="url(#SVGID_25_)" fill="url(#SVGID_26_)" width="7.372" height="14.938"/>
</g>
<g>
	<defs>
		<path id="SVGID_27_" d="M341.118,469.395c-1.242-1.17-1.859-2.609-1.859-4.315c0-1.738,0.59-3.229,1.776-4.464
			c1.186-1.237,2.633-1.86,4.338-1.86c1.738,0,3.228,0.597,4.464,1.777c1.236,1.187,1.86,2.632,1.86,4.343
			c0,1.721-0.597,3.2-1.777,4.442c-1.186,1.236-2.632,1.854-4.343,1.854C343.827,471.172,342.343,470.581,341.118,469.395
			 M339.738,459.462c-1.557,1.563-2.34,3.448-2.34,5.656c0,2.18,0.816,4.028,2.445,5.547c1.589,1.484,3.498,2.222,5.733,2.222
			c2.207,0,4.095-0.777,5.656-2.339c1.545-1.545,2.317-3.427,2.317-5.634c0-2.179-0.8-4.023-2.4-5.53
			c-1.617-1.495-3.543-2.246-5.777-2.246C343.165,457.138,341.289,457.916,339.738,459.462"/>
	</defs>
	<clipPath id="SVGID_28_">
		<use xlink:href="#SVGID_27_"  overflow="visible"/>
	</clipPath>
	
		<linearGradient id="SVGID_29_" gradientUnits="userSpaceOnUse" x1="0" y1="500" x2="1" y2="500" gradientTransform="matrix(0 16.1463 16.1463 0 -7727.6787 457.4453)">
		<stop  offset="0" style="stop-color:#FE023B"/>
		<stop  offset="0.0379" style="stop-color:#FE023B"/>
		<stop  offset="1" style="stop-color:#C51093"/>
	</linearGradient>
	<rect x="337.398" y="457.138" clip-path="url(#SVGID_28_)" fill="url(#SVGID_29_)" width="16.152" height="15.749"/>
</g>
<g>
	<defs>
		<path id="SVGID_30_" d="M374.35,459.119h2.428c0.348,0.056,0.674,0.138,0.982,0.243c0.502,0.205,0.872,0.503,1.115,0.91
			c0.242,0.402,0.364,0.85,0.364,1.347c0,0.595-0.171,1.137-0.507,1.617c-0.332,0.502-0.79,0.84-1.375,1.01h-3.008V459.119z
			 M372.512,472.484h1.838v-6.704l3.135-0.038c1.088-0.111,1.97-0.541,2.643-1.292c0.674-0.739,1.005-1.634,1.005-2.688
			c0-0.104-0.006-0.28-0.017-0.519c0-1.017-0.358-1.848-1.07-2.505c-0.728-0.647-1.623-1.032-2.688-1.154l-4.846-0.038V472.484z"/>
	</defs>
	<clipPath id="SVGID_31_">
		<use xlink:href="#SVGID_30_"  overflow="visible"/>
	</clipPath>
	
		<linearGradient id="SVGID_32_" gradientUnits="userSpaceOnUse" x1="0" y1="500" x2="1" y2="500" gradientTransform="matrix(0 16.1463 16.1463 0 -7696.335 457.4453)">
		<stop  offset="0" style="stop-color:#FE023B"/>
		<stop  offset="0.0379" style="stop-color:#FE023B"/>
		<stop  offset="1" style="stop-color:#C51093"/>
	</linearGradient>
	<rect x="372.512" y="457.547" clip-path="url(#SVGID_31_)" fill="url(#SVGID_32_)" width="8.62" height="14.938"/>
</g>
<g>
	<defs>
		<polygon id="SVGID_33_" points="403.258,457.547 403.258,472.484 411.375,472.484 411.375,470.868 405.057,470.868 
			405.057,465.118 411.375,465.118 411.375,463.584 405.095,463.584 405.095,459.163 411.375,459.163 411.375,457.547 		"/>
	</defs>
	<clipPath id="SVGID_34_">
		<use xlink:href="#SVGID_33_"  overflow="visible"/>
	</clipPath>
	
		<linearGradient id="SVGID_35_" gradientUnits="userSpaceOnUse" x1="0" y1="500" x2="1" y2="500" gradientTransform="matrix(0 16.1463 16.1463 0 -7665.8506 457.4453)">
		<stop  offset="0" style="stop-color:#FE023B"/>
		<stop  offset="0.0379" style="stop-color:#FE023B"/>
		<stop  offset="1" style="stop-color:#C51093"/>
	</linearGradient>
	<rect x="403.258" y="457.547" clip-path="url(#SVGID_34_)" fill="url(#SVGID_35_)" width="8.117" height="14.938"/>
</g>
<g>
	<defs>
		<path id="SVGID_36_" d="M436.429,459.075h2.848c0.161,0,0.342,0.022,0.546,0.066c0.188,0.056,0.371,0.11,0.542,0.177
			c0.474,0.204,0.832,0.528,1.069,0.971c0.243,0.448,0.363,0.938,0.363,1.474c0,0.651-0.17,1.192-0.522,1.64
			c-0.365,0.458-0.867,0.683-1.519,0.683h-3.327V459.075z M434.552,472.484h1.877v-7.648l5.612,7.648h2.423l-5.612-7.107h1.98
			c0.591-0.176,1.136-0.463,1.634-0.867c0.447-0.401,0.767-0.849,0.97-1.329c0.189-0.485,0.283-1.016,0.283-1.579
			c0-1.064-0.331-1.985-0.987-2.764c-0.701-0.839-1.584-1.253-2.649-1.253l-5.53-0.038V472.484z"/>
	</defs>
	<clipPath id="SVGID_37_">
		<use xlink:href="#SVGID_36_"  overflow="visible"/>
	</clipPath>
	
		<linearGradient id="SVGID_38_" gradientUnits="userSpaceOnUse" x1="0" y1="500" x2="1" y2="500" gradientTransform="matrix(0 16.1463 16.1463 0 -7633.6475 457.4453)">
		<stop  offset="0" style="stop-color:#FE023B"/>
		<stop  offset="0.0379" style="stop-color:#FE023B"/>
		<stop  offset="1" style="stop-color:#C51093"/>
	</linearGradient>
	<rect x="434.552" y="457.547" clip-path="url(#SVGID_37_)" fill="url(#SVGID_38_)" width="9.912" height="14.938"/>
</g>
<g>
	<defs>
		<path id="SVGID_39_" d="M336.446,118.048c-0.032-0.167-0.054-0.334-0.087-0.501c-0.078-0.386-0.193-0.766-0.287-1.149
			C336.193,116.91,336.318,117.461,336.446,118.048 M336.072,116.398c-0.014-0.052-0.025-0.103-0.037-0.154
			C336.047,116.295,336.059,116.347,336.072,116.398"/>
	</defs>
	<clipPath id="SVGID_40_">
		<use xlink:href="#SVGID_39_"  overflow="visible"/>
	</clipPath>
	
		<linearGradient id="SVGID_41_" gradientUnits="userSpaceOnUse" x1="-9.765625e-004" y1="500" x2="0.999" y2="500" gradientTransform="matrix(0.4115 0 0 -0.4115 336.0354 322.8916)">
		<stop  offset="0" style="stop-color:#FE023B"/>
		<stop  offset="0.0379" style="stop-color:#FE023B"/>
		<stop  offset="1" style="stop-color:#C51093"/>
	</linearGradient>
	<rect x="336.035" y="116.244" clip-path="url(#SVGID_40_)" fill="url(#SVGID_41_)" width="0.411" height="1.804"/>
</g>
<g>
	<defs>
		<path id="SVGID_42_" d="M335.663,114.751c-0.009-0.034-0.017-0.068-0.026-0.101C335.646,114.684,335.654,114.717,335.663,114.751
			 M335.637,114.65c-0.201-0.772-0.405-1.541-0.644-2.306C335.146,112.849,335.373,113.639,335.637,114.65"/>
	</defs>
	<clipPath id="SVGID_43_">
		<use xlink:href="#SVGID_42_"  overflow="visible"/>
	</clipPath>
	
		<linearGradient id="SVGID_44_" gradientUnits="userSpaceOnUse" x1="0" y1="500.002" x2="1" y2="500.002" gradientTransform="matrix(0.6709 0 0 -0.6709 334.9922 448.9796)">
		<stop  offset="0" style="stop-color:#FE023B"/>
		<stop  offset="0.0379" style="stop-color:#FE023B"/>
		<stop  offset="1" style="stop-color:#C51093"/>
	</linearGradient>
	<rect x="334.993" y="112.344" clip-path="url(#SVGID_43_)" fill="url(#SVGID_44_)" width="0.67" height="2.407"/>
</g>
<g>
	<defs>
		<path id="SVGID_45_" d="M277.53,191.564c-26.867,0.158-53.737-0.007-80.606-0.024c-45.252-0.028-90.505-0.042-135.758-0.105
			c-3.262-0.005-5.642-0.016-5.63,4.59c0.144,51.087,0.116,102.173,0.037,153.259c-0.005,3.39,0.995,4.63,4.514,4.622
			c38.003-0.099,76.007-0.092,114.011-0.01c3.31,0.006,4.848-0.905,4.836-4.446c-0.046-14.086-0.047-39.311-0.032-59.697
			c0.008-11.548-9.351-20.886-20.899-20.886c-11.536,0-20.89,9.366-20.898,20.901c-0.003,4.476-0.005,8.158-0.006,9.145
			c-0.005,4.334-0.001,8.666-0.001,12.963H97.731v-78.712c2.748,0,5.022,0,7.297,0c54.76,0.019,109.521,0.151,164.281-0.048
			c9.635-0.035,19.542-0.304,28.825-2.54c3.215-0.775,6.44-1.688,9.649-2.679c37.833-46.185,32.313-93.116,28.663-109.849
			C343.835,156.004,315.996,191.336,277.53,191.564"/>
	</defs>
	<clipPath id="SVGID_46_">
		<use xlink:href="#SVGID_45_"  overflow="visible"/>
	</clipPath>
	
		<linearGradient id="SVGID_47_" gradientUnits="userSpaceOnUse" x1="0" y1="499.8672" x2="1" y2="499.8672" gradientTransform="matrix(166.9365 -166.9365 -166.9365 -166.9365 83622.3516 83706.5)">
		<stop  offset="0" style="stop-color:#FE023B"/>
		<stop  offset="0.0379" style="stop-color:#FE023B"/>
		<stop  offset="1" style="stop-color:#C51093"/>
	</linearGradient>
	<polygon clip-path="url(#SVGID_46_)" fill="url(#SVGID_47_)" points="-62.409,235.981 200.57,-26.998 463.549,235.981 
		200.57,498.96 	"/>
</g>
<g>
	<defs>
		<path id="SVGID_48_" d="M336.035,116.244c-0.112-0.485-0.235-0.968-0.361-1.451C335.789,115.234,335.908,115.716,336.035,116.244
			 M335.674,114.793c-0.003-0.014-0.007-0.028-0.011-0.042C335.667,114.765,335.671,114.779,335.674,114.793"/>
	</defs>
	<clipPath id="SVGID_49_">
		<use xlink:href="#SVGID_48_"  overflow="visible"/>
	</clipPath>
	
		<linearGradient id="SVGID_50_" gradientUnits="userSpaceOnUse" x1="0" y1="500" x2="1" y2="500" gradientTransform="matrix(0.3714 0 0 -0.3714 335.6631 301.2107)">
		<stop  offset="0" style="stop-color:#FE023B"/>
		<stop  offset="0.0379" style="stop-color:#FE023B"/>
		<stop  offset="1" style="stop-color:#C51093"/>
	</linearGradient>
	<rect x="335.663" y="114.751" clip-path="url(#SVGID_49_)" fill="url(#SVGID_50_)" width="0.372" height="1.493"/>
</g>
<g>
	<defs>
		<path id="SVGID_51_" d="M285.286,70.379c22.554,1.816,42.989,20.4,49.707,41.965c-0.145-0.472-0.23-0.725-0.23-0.725
			s0.086,0.253,0.23,0.725c0.248,0.798,0.46,1.601,0.67,2.407c0.118,0.451,0.241,0.948,0.372,1.493
			c0.1,0.435,0.236,0.865,0.324,1.303c0.033,0.167,0.055,0.334,0.087,0.501c3.65,16.733,9.17,63.664-28.663,109.849
			c7.213-2.226,14.294-5.025,20.63-8.803c27.143-16.188,44.011-39.968,49.416-71.626c0.635-3.727,1.013-7.416,1.269-11.088
			c-23.756-65.346-96.239-66.208-96.348-66.209C283.594,70.241,284.441,70.31,285.286,70.379"/>
	</defs>
	<clipPath id="SVGID_52_">
		<use xlink:href="#SVGID_51_"  overflow="visible"/>
	</clipPath>
	
		<linearGradient id="SVGID_53_" gradientUnits="userSpaceOnUse" x1="0" y1="500" x2="1" y2="500" gradientTransform="matrix(0 -112.4908 -112.4908 0 56576.3164 186.0625)">
		<stop  offset="0" style="stop-color:#FE023B"/>
		<stop  offset="0.0379" style="stop-color:#FE023B"/>
		<stop  offset="1" style="stop-color:#C51093"/>
	</linearGradient>
	<rect x="282.75" y="70.171" clip-path="url(#SVGID_52_)" fill="url(#SVGID_53_)" width="96.348" height="157.726"/>
</g>
<g>
	<defs>
		<path id="SVGID_54_" d="M130.501,27.168c-23.182,0.07-46.365,0.14-69.546,0.107c-4.21-0.006-5.42,1.417-5.407,5.539
			c0.13,37.828,0.138,75.657-0.01,113.485c-0.016,4.088,1.378,5.042,5.189,5.037c71.416-0.087,142.83-0.072,214.245-0.044
			c5.529,0.002,11.011-1.884,14.987-5.726c6.673-6.444,8.186-14.627,4.675-23.652c-2.244-5.768-11.207-12.383-19.314-12.349
			c-56.741,0.235-113.485,0.119-170.228,0.117h-7.834c0-11.771,0.254-22.87-0.114-33.95c-0.168-5.048,1.225-6.529,6.41-6.511
			c54.975,0.192,109.95,0.089,164.926,0.162c4.756,0.007,9.517,0.394,14.27,0.788c0.108,0.001,72.592,0.863,96.348,66.209
			c1.188-17.095-1.735-33.584-9.383-49.22c-18.713-38.259-50.305-58.765-92.4-59.469c-29.786-0.499-59.581-0.639-89.374-0.639
			C168.794,27.052,149.649,27.11,130.501,27.168"/>
	</defs>
	<clipPath id="SVGID_55_">
		<use xlink:href="#SVGID_54_"  overflow="visible"/>
	</clipPath>
	
		<linearGradient id="SVGID_56_" gradientUnits="userSpaceOnUse" x1="0" y1="499.999" x2="1" y2="499.999" gradientTransform="matrix(-230.3661 0 0 230.3661 361.875 -115093.8281)">
		<stop  offset="0" style="stop-color:#FE023B"/>
		<stop  offset="0.0379" style="stop-color:#FE023B"/>
		<stop  offset="1" style="stop-color:#C51093"/>
	</linearGradient>
	<rect x="55.522" y="27.052" clip-path="url(#SVGID_55_)" fill="url(#SVGID_56_)" width="324.763" height="124.289"/>
</g>
</svg>
