<?xml version="1.0" encoding="utf-8"?>
<!-- Generator: Adobe Illustrator 16.0.0, SVG Export Plug-In . SVG Version: 6.00 Build 0)  -->
<!DOCTYPE svg PUBLIC "-//W3C//DTD SVG 1.1//EN" "http://www.w3.org/Graphics/SVG/1.1/DTD/svg11.dtd">
<svg version="1.1" id="Layer_1" xmlns="http://www.w3.org/2000/svg" xmlns:xlink="http://www.w3.org/1999/xlink" x="0px" y="0px"
	 width="98.958px" height="125.782px" viewBox="0 0 98.958 125.782" enable-background="new 0 0 98.958 125.782"
	 xml:space="preserve">
<path fill="#FFFFFF" d="M98.957,49.474c0-13.355-7.764-24.934-19.018-30.455C74.416,7.764,62.837-0.001,49.478-0.001
	c-13.357,0-24.936,7.765-30.461,19.02C7.765,24.54-0.001,36.118-0.001,49.474c0,13.356,7.766,24.935,19.018,30.462
	c5.525,11.254,17.104,19.018,30.461,19.018c13.359,0,24.938-7.764,30.461-19.018C91.193,74.408,98.957,62.83,98.957,49.474
	 M49.478,5.559c8.939,0,16.92,4.16,22.121,10.646c-2.121-0.418-4.313-0.637-6.553-0.637c-5.609,0-10.902,1.369-15.568,3.789
	c-4.666-2.42-9.955-3.789-15.566-3.789c-2.24,0-4.432,0.219-6.553,0.637C32.56,9.719,40.542,5.559,49.478,5.559 M77.832,33.911
	c0,3.525-0.652,6.902-1.834,10.02c-3.123-3.914-7.09-7.123-11.625-9.348c-2.227-4.535-5.436-8.504-9.348-11.625
	c3.117-1.18,6.494-1.832,10.021-1.832c3.779,0,7.387,0.75,10.688,2.096C77.082,26.522,77.832,30.13,77.832,33.911 M77.832,65.041
	c0,3.777-0.75,7.385-2.098,10.688c-3.301,1.35-6.908,2.1-10.688,2.1c-3.527,0-6.904-0.654-10.021-1.836
	c3.912-3.123,7.121-7.09,9.348-11.625c4.535-2.227,8.502-5.436,11.625-9.349C77.179,58.135,77.832,61.512,77.832,65.041
	 M21.126,65.041c0-3.529,0.65-6.906,1.834-10.022c3.121,3.913,7.09,7.122,11.623,9.349c2.227,4.535,5.438,8.502,9.348,11.625
	c-3.115,1.182-6.492,1.836-10.02,1.836c-3.779,0-7.387-0.75-10.688-2.1C21.875,72.426,21.126,68.818,21.126,65.041 M21.126,33.911
	c0-3.781,0.748-7.389,2.098-10.689c3.301-1.346,6.908-2.096,10.688-2.096c3.527,0,6.904,0.652,10.02,1.832
	c-3.91,3.121-7.121,7.09-9.348,11.625c-4.533,2.225-8.502,5.434-11.623,9.348C21.777,40.813,21.126,37.437,21.126,33.911
	 M56.031,31.769c-2.121-0.418-4.311-0.641-6.553-0.641c-2.24,0-4.434,0.223-6.555,0.641c1.857-2.316,4.068-4.334,6.555-5.973
	C51.964,27.435,54.175,29.452,56.031,31.769 M62.265,49.474c0,3.779-0.75,7.387-2.1,10.687c-3.301,1.35-6.906,2.098-10.688,2.098
	s-7.389-0.748-10.688-2.098c-1.35-3.3-2.1-6.907-2.1-10.687s0.75-7.385,2.1-10.686c3.299-1.35,6.906-2.098,10.688-2.098
	s7.387,0.748,10.688,2.098C61.515,42.089,62.265,45.694,62.265,49.474 M31.771,42.923c-0.418,2.121-0.639,4.313-0.639,6.551
	c0,2.24,0.221,4.432,0.639,6.551c-2.316-1.855-4.334-4.066-5.973-6.551C27.437,46.991,29.455,44.782,31.771,42.923 M42.923,67.182
	c2.121,0.416,4.314,0.637,6.555,0.637c2.242,0,4.432-0.221,6.553-0.637c-1.855,2.314-4.066,4.334-6.553,5.971
	C46.992,71.516,44.781,69.496,42.923,67.182 M67.187,56.024c0.416-2.119,0.637-4.311,0.637-6.551c0-2.238-0.221-4.43-0.637-6.551
	c2.316,1.859,4.334,4.068,5.973,6.551C71.521,51.958,69.503,54.169,67.187,56.024 M5.56,49.474c0-8.936,4.16-16.916,10.645-22.117
	c-0.418,2.121-0.639,4.313-0.639,6.555c0,5.607,1.369,10.9,3.789,15.563c-2.419,4.664-3.789,9.956-3.789,15.567
	c0,2.238,0.221,4.43,0.639,6.551C9.72,66.393,5.56,58.41,5.56,49.474 M49.478,93.395c-8.936,0-16.918-4.162-22.119-10.646
	c2.121,0.418,4.313,0.639,6.553,0.639c5.611,0,10.9-1.369,15.566-3.789c4.666,2.42,9.959,3.789,15.568,3.789
	c2.24,0,4.432-0.221,6.553-0.639C66.398,89.232,58.417,93.395,49.478,93.395 M82.753,71.592c0.418-2.121,0.639-4.313,0.639-6.551
	c0-5.611-1.371-10.903-3.791-15.567c2.42-4.662,3.791-9.955,3.791-15.563c0-2.242-0.221-4.434-0.639-6.555
	c6.482,5.201,10.645,13.182,10.645,22.117C93.398,58.41,89.236,66.393,82.753,71.592"/>
<path fill="#FFFFFF" d="M7.731,117.982c1.244,0,2.342,0.355,2.342,0.355c0.031-1.867-0.326-2.609-1.838-2.609
	c-1.363,0-2.699,0.355-3.32,0.533c-0.355,0.09-0.563-0.146-0.652-0.473l-0.238-1.098c-0.088-0.385,0.119-0.592,0.387-0.682
	c0.207-0.09,1.896-0.682,4.091-0.682c3.794,0,4.149,2.313,4.149,5.277v6.314c0,0.297-0.268,0.564-0.564,0.564h-0.83
	c-0.266,0-0.385-0.119-0.504-0.416l-0.294-0.799c-0.654,0.623-1.809,1.512-3.648,1.512c-2.222,0-3.824-1.512-3.824-3.973
	C2.988,119.643,4.708,117.982,7.731,117.982 M7.376,123.672c1.186,0,2.313-0.891,2.668-1.482v-1.898
	c-0.178-0.119-1.008-0.475-2.076-0.475c-1.421,0-2.4,0.742-2.4,1.957C5.568,122.842,6.279,123.672,7.376,123.672"/>
<path fill="#FFFFFF" d="M21.726,113.324c1.809,0,3.203,0.74,4.301,2.104c0.207,0.268,0.148,0.623-0.119,0.83l-0.979,0.891
	c-0.357,0.326-0.564,0.09-0.801-0.119c-0.533-0.594-1.395-1.125-2.371-1.125c-1.93,0-3.443,1.631-3.443,3.646
	c0,2.045,1.486,3.676,3.412,3.676c1.512,0,2.135-0.77,2.758-1.363c0.266-0.268,0.533-0.268,0.801-0.061l0.801,0.654
	c0.297,0.236,0.414,0.533,0.207,0.83c-0.949,1.512-2.551,2.49-4.596,2.49c-3.324,0-6.197-2.641-6.197-6.197
	C15.5,116.082,18.433,113.324,21.726,113.324"/>
<path fill="#FFFFFF" d="M29.257,114.184c0-0.297,0.268-0.564,0.563-0.564h0.83c0.268,0,0.416,0.148,0.506,0.355l0.326,1.01
	c0.266-0.268,1.631-1.66,3.914-1.66c1.719,0,2.965,0.682,3.826,1.896c0.326-0.326,2.045-1.896,4.295-1.896
	c3.621,0,4.895,2.549,4.895,5.633v5.959c0,0.297-0.236,0.564-0.563,0.564h-1.662c-0.326,0-0.564-0.268-0.564-0.564v-6.078
	c0-1.867-0.859-2.934-2.461-2.934c-1.807,0-2.842,1.273-3.051,1.451c0.061,0.268,0.09,0.83,0.09,1.424v6.137
	c0,0.297-0.268,0.564-0.563,0.564h-1.574c-0.326,0-0.564-0.268-0.564-0.564v-6.078c0-1.896-0.859-2.934-2.52-2.934
	c-1.779,0-2.787,1.393-2.936,1.777v7.234c0,0.297-0.268,0.564-0.563,0.564H29.82c-0.295,0-0.563-0.268-0.563-0.564V114.184z"/>
<path fill="#FFFFFF" d="M57.189,113.324c3.082,0,5.455,2.313,5.455,5.486c0,0.205-0.029,0.592-0.061,0.799
	c-0.029,0.297-0.266,0.504-0.533,0.504h-8.064c0.09,1.602,1.482,3.174,3.41,3.174c1.066,0,2.047-0.475,2.639-0.861
	c0.355-0.207,0.563-0.326,0.801-0.029l0.83,1.127c0.207,0.236,0.297,0.475-0.059,0.771c-0.861,0.74-2.402,1.482-4.391,1.482
	c-3.586,0-5.959-2.816-5.959-6.227C51.257,116.199,53.63,113.324,57.189,113.324 M59.886,118.246
	c-0.09-1.424-1.275-2.639-2.729-2.639c-1.602,0-2.846,1.154-3.023,2.639H59.886z"/>
<path fill="#FFFFFF" d="M77.349,113.324c1.809,0,3.203,0.74,4.301,2.104c0.207,0.268,0.148,0.623-0.119,0.83l-0.979,0.891
	c-0.357,0.326-0.564,0.09-0.801-0.119c-0.533-0.594-1.395-1.125-2.371-1.125c-1.93,0-3.441,1.631-3.441,3.646
	c0,2.045,1.484,3.676,3.41,3.676c1.512,0,2.135-0.77,2.758-1.363c0.266-0.268,0.533-0.268,0.801-0.061l0.801,0.654
	c0.297,0.236,0.414,0.533,0.207,0.83c-0.949,1.512-2.551,2.49-4.596,2.49c-3.322,0-6.197-2.641-6.197-6.197
	C71.123,116.082,74.058,113.324,77.349,113.324"/>
<path fill="#FFFFFF" d="M89.98,113.322c3.32,0,5.99,2.848,5.99,6.199c0,3.41-2.67,6.256-5.99,6.256s-5.988-2.846-5.988-6.256
	C83.992,116.17,86.66,113.322,89.98,113.322 M89.98,123.227c1.867,0,3.352-1.66,3.352-3.705c0-1.988-1.484-3.619-3.352-3.619
	s-3.352,1.631-3.352,3.619C86.628,121.566,88.113,123.227,89.98,123.227"/>
</svg>
